<?xml version="1.0"?>
<svg xmlns="http://www.w3.org/2000/svg" id="Layer_1" height="512px" viewBox="0 0 512 512" width="512px" data-name="Layer 1" class=""><g><path d="m238.738 322.892c-24.157-17.789-36.406-40.2-36.406-66.612v-42.28a392.816 392.816 0 0 0 63.668-35.445q-5.054-3.462-10-7.075a392.8 392.8 0 0 1 -73.668 42.52v42.28c0 26.411 12.249 48.823 36.406 66.612a139.14 139.14 0 0 0 35.913 18.8c1.975-.645 5.586-1.9 10.182-3.849a138.236 138.236 0 0 1 -26.095-14.951z" fill="#d4e1f4" data-original="#D4E1F4" class=""/><path d="m102.054 496.726a6 6 0 0 0 5.956 5.274h65.7a6 6 0 0 0 5.74-7.75l-8.208-26.92 25.593-16.179a14.271 14.271 0 0 1 10.355-1.319c.125.031.25.058.376.082l54.686 10.069a72.674 72.674 0 0 0 44.92-6.342 5.925 5.925 0 0 0 .734-.431l94.578-64.938a6 6 0 0 0 1.744-8.041 27.879 27.879 0 0 0 -37.174-10.167l-.266.144c-7.191-7.666-18.761-10.432-27.694-5.905l-.134.07-2.7 1.453a30.817 30.817 0 0 0 -34.228-2.382l-20.043 10.9h-26.781a37.45 37.45 0 0 1 -16.215-3.715l-3.751-1.814a66.267 66.267 0 0 0 -68.97 6.735c-.131.1-.259.2-.382.313l-9.057 8.063a29.5 29.5 0 0 1 -9.314 5.592l-4.569-14.988a6 6 0 0 0 -5.74-4.25h-43.8a6 6 0 0 0 -5.956 6.726zm253.432-120.421-33.327 17.98-.2.1a33.009 33.009 0 0 0 -3.062-5.575l25.679-13.836c3.224-1.594 7.484-.906 10.91 1.331zm-47.509-2.435a18.8 18.8 0 0 1 15.893-1.37l-13.86 7.467a32.989 32.989 0 0 0 -6.8-3.509l4.62-2.512zm-143.165 19.018 8.868-7.895a54.311 54.311 0 0 1 56.337-5.376l3.751 1.814a49.522 49.522 0 0 0 21.44 4.912h36.376a21.084 21.084 0 0 1 20.075 14.724l-23.787-1.076a159.445 159.445 0 0 0 -29.043 1.342 6 6 0 1 0 1.645 11.886 147.855 147.855 0 0 1 26.856-1.24l31.028 1.4c.09 0 .181.007.271.007a6 6 0 0 0 6-6c0-.278-.014-.553-.021-.83l3.2-1.686 44.946-24.248a15.9 15.9 0 0 1 17.446 1.528l-88.727 60.92a60.627 60.627 0 0 1 -37.066 5.108l-54.491-10.033a26.233 26.233 0 0 0 -19.068 2.6c-.094.053-.187.108-.278.165l-22.957 14.513-16.592-54.419a41.482 41.482 0 0 0 13.791-8.116zm-32.045-10.609 32.841 107.721h-52.285l-13.136-107.721z" fill="#0635c9" data-original="#0635C9" class="" style="fill:#151C26" data-old_color="#0635c9"/><path d="m131.686 145.3a27.858 27.858 0 0 0 13.26-3.364l.273-.148a25.493 25.493 0 0 0 18.293 8.094 20.7 20.7 0 0 0 9.394-2.185l.134-.07 2.681-1.444a30.806 30.806 0 0 0 34.245 2.373l20.043-10.9h26.783a37.45 37.45 0 0 1 16.215 3.715l3.751 1.814a66.274 66.274 0 0 0 68.97-6.735c.131-.1.259-.2.382-.313l9.057-8.063a29.5 29.5 0 0 1 9.314-5.592l4.569 14.988a6 6 0 0 0 5.74 4.25h43.8a6 6 0 0 0 5.956-6.72l-14.6-119.721a6 6 0 0 0 -5.956-5.279h-65.7a6 6 0 0 0 -5.74 7.75l8.208 26.92-25.593 16.179a14.26 14.26 0 0 1 -10.355 1.319c-.125-.031-.25-.058-.376-.082l-54.686-10.069a72.7 72.7 0 0 0 -44.92 6.342 5.925 5.925 0 0 0 -.734.431l-94.578 64.938a6 6 0 0 0 -1.744 8.041 27.873 27.873 0 0 0 23.914 13.531zm24.827-9.605 33.328-17.98.2-.1a33.009 33.009 0 0 0 3.062 5.575l-25.679 13.836c-3.224 1.596-7.484.907-10.911-1.326zm47.51 2.435a18.794 18.794 0 0 1 -15.894 1.367l13.861-7.468a32.989 32.989 0 0 0 6.8 3.509l-4.62 2.512zm194.654-116.13 13.136 107.721h-32.58l-32.841-107.721zm-188.151 46.93a60.6 60.6 0 0 1 37.066-5.108l54.491 10.033a26.233 26.233 0 0 0 19.068-2.6c.094-.053.187-.108.278-.165l22.957-14.513 16.592 54.419a41.482 41.482 0 0 0 -13.79 8.12l-8.868 7.9a54.313 54.313 0 0 1 -56.337 5.376l-3.751-1.814a49.522 49.522 0 0 0 -21.44-4.912h-36.376a21.084 21.084 0 0 1 -20.075-14.724l23.787 1.076a159.637 159.637 0 0 0 29.043-1.342 6 6 0 1 0 -1.645-11.886 147.581 147.581 0 0 1 -26.856 1.24l-31.028-1.4a6 6 0 0 0 -6.271 5.993c0 .278.014.553.021.83l-3.2 1.686-44.946 24.248a15.9 15.9 0 0 1 -17.446-1.537z" fill="#0635c9" data-original="#0635C9" class="" style="fill:#151C26" data-old_color="#0635c9"/><g fill="#1ae5be"><path d="m211.932 332.781a146.437 146.437 0 0 0 41 20.966 6 6 0 0 0 3.315.015 153.575 153.575 0 0 0 42.357-20.923c28.171-19.916 43.061-46.39 43.061-76.559v-46.217a6 6 0 0 0 -3.63-5.512l-.523-.225a380.726 380.726 0 0 1 -77.912-45.114 6 6 0 0 0 -7.2 0 380.726 380.726 0 0 1 -77.915 45.114l-.523.225a6 6 0 0 0 -3.63 5.512v46.217c0 30.129 14.385 56.582 41.6 76.501zm-29.6-118.781a392.8 392.8 0 0 0 73.668-42.52 392.8 392.8 0 0 0 73.668 42.52v42.28c0 26.377-12.689 48.773-37.714 66.566a146.281 146.281 0 0 1 -37.3 18.847 139.14 139.14 0 0 1 -35.913-18.8c-24.157-17.789-36.406-40.2-36.406-66.612z" data-original="#1AE5BE" class="active-path" style="fill:#ec1661" data-old_color="#1AE5BE"/><path d="m240.594 280.16a6 6 0 0 0 8.485 0l39.834-39.834a6 6 0 0 0 -8.485-8.486l-35.592 35.592-13.264-13.265a6 6 0 0 0 -8.485 8.486z" data-original="#1AE5BE" class="active-path" style="fill:#ec1661" data-old_color="#1AE5BE"/></g></g> </svg>
