<?xml version="1.0"?>
<svg xmlns="http://www.w3.org/2000/svg" id="Layer_1" data-name="Layer 1" viewBox="0 0 512 512" width="512px" height="512px"><g><title>Card Payment</title><path d="M89,81a34.038,34.038,0,0,1,34-34H93A34.038,34.038,0,0,0,59,81V95H89Z" style="fill:#d4e1f4" data-original="#D4E1F4"/><rect x="59" y="107" width="30" height="286" style="fill:#d4e1f4" data-original="#D4E1F4"/><path d="M89,431V405H59v26a34.038,34.038,0,0,0,34,34h30A34.038,34.038,0,0,1,89,431Z" style="fill:#d4e1f4" data-original="#D4E1F4"/><path d="M303,431V345H291v48H63V107H226a6,6,0,0,0,0-12H63V81A34.038,34.038,0,0,1,97,47H257a34.038,34.038,0,0,1,34,34V95H277a6,6,0,0,0,0,12h14v62h12V81a46.053,46.053,0,0,0-46-46H97A46.053,46.053,0,0,0,51,81V431a46.053,46.053,0,0,0,46,46H257A46.053,46.053,0,0,0,303,431ZM63,431V405H291v26a34.038,34.038,0,0,1-34,34H97A34.038,34.038,0,0,1,63,431Z" style="fill:#151C26" data-original="#0635C9" class="active-path" data-old_color="#0635C9"/><path d="M245.694,95a6,6,0,1,0,0,12H256.81a6,6,0,0,0,0-12Z" style="fill:#151C26" data-original="#0635C9" class="active-path" data-old_color="#0635C9"/><path d="M177,414a21,21,0,1,0,21,21A21.023,21.023,0,0,0,177,414Zm0,30a9,9,0,1,1,9-9A9.011,9.011,0,0,1,177,444Z" style="fill:#151C26" data-original="#0635C9" class="active-path" data-old_color="#0635C9"/><path d="M169,237H124.71a6,6,0,1,0,0,12H169a6,6,0,0,0,0-12Z" style="fill:#151C26" data-original="#0635C9" class="active-path" data-old_color="#0635C9"/><path d="M88,249H98.176a6,6,0,0,0,0-12H88a6,6,0,0,0,0,12Z" style="fill:#151C26" data-original="#0635C9" class="active-path" data-old_color="#0635C9"/><path d="M169,277H150.71a6,6,0,0,0,0,12H169a6,6,0,0,0,0-12Z" style="fill:#151C26" data-original="#0635C9" class="active-path" data-old_color="#0635C9"/><path d="M88,289h36.176a6,6,0,0,0,0-12H88a6,6,0,0,0,0,12Z" style="fill:#151C26" data-original="#0635C9" class="active-path" data-old_color="#0635C9"/><path d="M169,193h-8a6,6,0,0,0,0,12h8a6,6,0,0,0,0-12Z" style="fill:#151C26" data-original="#0635C9" class="active-path" data-old_color="#0635C9"/><path d="M88,205h46.176a6,6,0,0,0,0-12H88a6,6,0,0,0,0,12Z" style="fill:#151C26" data-original="#0635C9" class="active-path" data-old_color="#0635C9"/><path d="M435,161H228a26.03,26.03,0,0,0-26,26V325a26.03,26.03,0,0,0,26,26H435a26.03,26.03,0,0,0,26-26V187A26.03,26.03,0,0,0,435,161ZM214,210H449v18H214Zm14-37H435a14.015,14.015,0,0,1,14,14v11H214V187A14.015,14.015,0,0,1,228,173ZM435,339H228a14.015,14.015,0,0,1-14-14V240H449v85A14.015,14.015,0,0,1,435,339Z" style="fill:#ec1661" data-original="#1AE5BE" class="" data-old_color="#1AE5BE"/><path d="M402.969,262.323a30.542,30.542,0,0,0-13.35,3.077,30.646,30.646,0,1,0,0,55.139,30.64,30.64,0,1,0,13.35-58.216Zm-45.346,30.646a18.646,18.646,0,1,1,18.646,18.646A18.668,18.668,0,0,1,357.623,292.969Zm45.346,18.646a18.651,18.651,0,0,1-2.271-.148,30.624,30.624,0,0,0,0-37,18.642,18.642,0,1,1,2.271,37.144Z" style="fill:#ec1661" data-original="#1AE5BE" class="" data-old_color="#1AE5BE"/></g> </svg>
