<?xml version="1.0"?>
<svg xmlns="http://www.w3.org/2000/svg" id="Layer_1" data-name="Layer 1" viewBox="0 0 512 512" width="512px" height="512px" class=""><g><title>Mobile Phone</title><path d="M172,81a34.038,34.038,0,0,1,34-34H176a34.038,34.038,0,0,0-34,34V95h30Z" style="fill:#d4e1f4" data-original="#D4E1F4" class=""/><rect x="142" y="107" width="30" height="286" style="fill:#d4e1f4" data-original="#D4E1F4" class=""/><path d="M172,431V405H142v26a34.038,34.038,0,0,0,34,34h30A34.038,34.038,0,0,1,172,431Z" style="fill:#d4e1f4" data-original="#D4E1F4" class=""/><path d="M336,35H176a46.052,46.052,0,0,0-46,46V431a46.052,46.052,0,0,0,46,46H336a46.052,46.052,0,0,0,46-46V81A46.052,46.052,0,0,0,336,35Zm0,430H176a34.038,34.038,0,0,1-34-34V405H370v26A34.038,34.038,0,0,1,336,465ZM370,95H356a6,6,0,0,0,0,12h14V393H142V107H305a6,6,0,0,0,0-12H142V81a34.038,34.038,0,0,1,34-34H336a34.038,34.038,0,0,1,34,34Z" style="fill:#151C26" data-original="#0635C9" class="active-path" data-old_color="#0635C9"/><path d="M335.81,95H324.7a6,6,0,0,0,0,12H335.81a6,6,0,0,0,0-12Z" style="fill:#151C26" data-original="#0635C9" class="active-path" data-old_color="#0635C9"/><path d="M256,456a21,21,0,1,0-21-21A21.024,21.024,0,0,0,256,456Zm0-30a9,9,0,1,1-9,9A9.01,9.01,0,0,1,256,426Z" style="fill:#EC1661" data-original="#1AE5BE" class="" data-old_color="#1AE5BE"/></g> </svg>
