<?xml version="1.0" standalone="no"?>
<!DOCTYPE svg PUBLIC "-//W3C//DTD SVG 20010904//EN"
 "http://www.w3.org/TR/2001/REC-SVG-20010904/DTD/svg10.dtd">
<svg version="1.0" xmlns="http://www.w3.org/2000/svg"
 width="400.000000pt" height="383.000000pt" viewBox="0 0 400.000000 383.000000"
 preserveAspectRatio="xMidYMid meet">

<g transform="translate(0.000000,383.000000) scale(0.100000,-0.100000)"
fill="#000000" stroke="none">
<path d="M1850 3820 c-517 -42 -985 -262 -1327 -623 -546 -578 -672 -1407
-320 -2112 250 -502 747 -891 1309 -1024 186 -44 285 -55 493 -55 158 1 225 5
320 22 452 79 801 256 1108 560 334 330 518 723 559 1194 37 426 -103 895
-372 1248 -275 362 -673 624 -1110 731 -217 53 -465 75 -660 59z m380 -100
c429 -53 810 -231 1117 -523 617 -586 730 -1528 269 -2241 -104 -161 -270
-341 -423 -459 -269 -207 -602 -342 -953 -388 -101 -13 -368 -12 -476 1 -633
78 -1173 444 -1463 991 -155 295 -226 660 -190 987 66 607 423 1127 970 1416
218 115 422 179 679 215 92 12 370 13 470 1z"/>
<path d="M1875 3294 c-251 -26 -491 -109 -686 -236 -300 -197 -509 -489 -595
-829 -36 -143 -45 -392 -19 -536 51 -286 177 -527 384 -733 266 -264 596 -409
977 -427 733 -35 1378 473 1495 1177 5 30 9 123 9 207 1 172 -19 291 -71 440
-118 332 -375 620 -702 785 -104 52 -289 113 -402 132 -91 16 -316 28 -390 20z
m139 -183 c16 -52 30 -101 33 -108 3 -9 -3 -13 -21 -13 -24 0 -26 -3 -26 -46
0 -41 -2 -45 -22 -42 -19 2 -24 10 -26 46 -3 34 -7 42 -23 42 -10 0 -19 5 -19
11 0 24 65 218 70 211 4 -4 19 -49 34 -101z m256 -42 l0 -121 -28 7 c-26 5
-30 3 -40 -34 -10 -32 -16 -38 -32 -34 -13 4 -19 11 -16 22 18 61 18 69 -4 76
-11 4 -20 10 -18 14 8 22 124 191 131 191 4 0 7 -54 7 -121z m-496 5 c31 -45
56 -86 56 -92 0 -5 -10 -12 -21 -15 -16 -4 -20 -11 -15 -24 4 -10 10 -30 13
-45 5 -23 2 -28 -15 -28 -16 0 -24 10 -32 40 -10 36 -12 39 -35 30 l-25 -10 0
122 c0 69 4 118 9 113 4 -6 34 -47 65 -91z m741 -91 c-22 -130 -24 -138 -38
-124 -19 19 -33 12 -50 -24 -15 -31 -20 -34 -37 -25 -19 10 -19 12 -2 46 16
34 16 37 -2 49 -11 9 -15 19 -10 27 13 23 147 158 152 153 2 -2 -3 -48 -13
-102z m-936 -87 c-23 -11 -24 -18 -4 -57 9 -16 13 -34 10 -39 -13 -21 -37 -9
-51 25 -13 31 -17 34 -35 24 -11 -6 -23 -9 -25 -6 -4 4 -44 224 -44 237 1 3
39 -35 85 -85 75 -81 82 -91 64 -99z m444 -120 c57 -24 162 -156 229 -291 65
-128 89 -211 91 -305 2 -102 -10 -133 -105 -270 -36 -52 -75 -113 -86 -135
-19 -39 -44 -115 -37 -115 2 0 21 37 43 83 42 85 104 167 127 167 26 0 116
-113 154 -194 47 -98 55 -154 40 -267 l-12 -86 32 -46 c34 -50 62 -63 114 -53
90 19 118 4 79 -44 -13 -16 -32 -24 -70 -28 -55 -5 -66 -14 -92 -82 -22 -57
-38 -70 -87 -70 -56 0 -57 21 -3 73 25 23 40 46 40 61 0 13 -20 51 -44 83 -38
52 -49 61 -84 66 -48 8 -118 67 -177 150 -22 31 -45 56 -51 57 -16 0 16 -110
103 -353 41 -115 73 -218 71 -230 -4 -30 -62 -37 -76 -10 -5 10 -31 103 -57
207 -27 104 -50 185 -52 180 -2 -6 17 -108 42 -227 24 -119 42 -223 39 -232
-10 -25 -39 -36 -58 -22 -22 16 -29 50 -57 275 -13 100 -27 182 -31 182 -5 0
-6 -10 -3 -23 2 -12 9 -107 15 -212 6 -104 13 -204 15 -221 12 -70 -49 -121
-86 -75 -17 21 -18 43 -14 274 4 257 -1 253 -24 -18 -7 -77 -17 -152 -23 -168
-22 -57 -92 -41 -90 20 0 15 19 118 42 227 22 109 39 203 38 208 -2 5 -25 -75
-52 -179 -54 -209 -66 -238 -98 -249 -31 -9 -62 30 -55 71 3 16 53 154 111
305 99 256 114 300 101 300 -2 0 -42 -39 -87 -86 -89 -93 -137 -124 -192 -124
-27 0 -41 -8 -66 -37 -43 -49 -73 -118 -66 -149 4 -14 20 -39 37 -56 16 -18
28 -39 27 -47 -5 -23 -51 -45 -80 -38 -26 7 -39 29 -58 103 -11 46 -23 54 -78
54 -56 0 -87 20 -87 55 0 38 29 44 76 16 42 -26 81 -27 101 -3 9 9 27 40 42
69 24 48 25 56 14 102 -16 73 1 137 73 267 73 130 125 204 145 204 8 0 36 -20
63 -45 44 -41 64 -73 91 -149 6 -16 13 -26 17 -23 16 17 -45 133 -104 198 -91
100 -98 116 -98 234 0 95 2 104 36 175 20 41 67 120 103 175 36 55 66 106 66
113 0 8 3 12 8 10 4 -2 41 -20 82 -41 73 -36 120 -47 120 -27 0 6 -6 10 -12
10 -23 1 -129 48 -167 74 -29 20 -42 24 -66 18 -17 -5 -34 -18 -40 -30 -5 -12
-13 -22 -17 -22 -16 0 -38 34 -38 60 0 23 9 35 37 55 43 29 56 31 73 10 38
-46 180 -97 180 -65 0 6 -3 9 -7 9 -28 -4 -30 3 -12 41 10 21 19 42 19 45 0 3
-20 5 -44 5 -69 0 -106 10 -106 29 0 41 52 53 113 27z m-139 -38 c-9 -32 -14
-35 -24 -18 -16 24 -11 40 11 40 16 0 19 -4 13 -22z m136 -42 c0 -33 -35 -47
-58 -24 -20 20 -14 28 23 28 19 0 35 -2 35 -4z m895 -48 c75 -38 160 -130 201
-215 33 -68 36 -85 59 -295 37 -347 65 -496 112 -600 14 -32 23 -61 20 -65
-14 -13 -84 18 -116 51 -46 47 -73 166 -106 460 -38 338 -66 423 -162 503 -61
50 -80 60 -142 74 -57 12 -150 -6 -207 -41 -45 -28 -119 -107 -164 -175 -24
-36 -41 -53 -43 -44 -2 7 -14 47 -27 87 -13 39 -21 74 -19 76 2 2 24 14 49 26
25 13 85 50 134 83 131 89 183 109 281 104 61 -3 92 -10 130 -29z m-1493 -26
c40 -21 98 -58 128 -82 30 -25 89 -63 130 -84 41 -21 77 -40 79 -42 4 -3 -66
-133 -78 -147 -5 -4 -27 21 -50 57 -53 81 -137 161 -198 189 -37 16 -67 22
-128 22 -69 0 -86 -4 -125 -27 -62 -36 -125 -104 -149 -159 -33 -73 -49 -162
-76 -401 -24 -215 -52 -368 -77 -416 -18 -34 -88 -82 -120 -82 -15 0 -28 2
-28 4 0 2 11 28 25 59 45 102 80 293 110 587 18 186 31 252 57 305 54 107 148
197 245 235 29 12 74 19 115 20 58 0 76 -5 140 -38z m1425 -129 c64 -30 127
-99 147 -161 20 -61 41 -192 61 -372 9 -80 24 -191 34 -247 21 -116 17 -123
-42 -70 l-37 32 -20 210 c-23 236 -35 314 -56 364 -23 56 -27 28 -10 -76 21
-128 57 -455 50 -462 -2 -3 -19 9 -36 27 -31 30 -32 35 -49 189 -21 189 -48
333 -62 333 -6 0 -7 -18 -3 -47 9 -65 23 -211 31 -310 7 -91 1 -100 -39 -60
-20 20 -23 36 -29 132 -6 113 -31 263 -48 279 -16 17 -20 -1 -9 -45 5 -24 13
-93 16 -154 l6 -110 -71 77 c-83 89 -146 125 -238 134 -57 6 -63 9 -63 30 0
59 95 213 166 270 56 44 81 56 138 64 66 9 100 3 163 -27z m-1439 -6 c96 -35
231 -202 256 -318 6 -26 4 -27 -57 -33 -107 -13 -185 -58 -262 -156 -22 -27
-43 -50 -47 -50 -12 0 -9 91 6 200 7 52 11 97 9 100 -20 23 -62 -198 -63 -329
0 -42 -5 -60 -22 -78 -49 -52 -52 -22 -22 260 14 132 14 170 0 156 -7 -7 -45
-252 -57 -369 -10 -96 -16 -120 -37 -147 -41 -55 -49 -44 -40 60 4 50 17 160
28 242 35 244 34 243 17 220 -26 -37 -40 -118 -66 -399 l-19 -200 -33 -28
c-63 -51 -68 -40 -45 88 8 44 22 142 31 219 33 289 58 399 104 464 25 34 88
79 138 97 46 16 136 17 181 1z m1770 -1069 c7 -7 12 -15 12 -19 0 -5 -93 -73
-207 -152 -115 -79 -385 -266 -600 -415 -216 -150 -397 -272 -402 -272 -6 0
-108 67 -228 148 -120 82 -290 197 -378 257 -236 160 -569 388 -574 392 -3 2
2 17 10 34 l14 30 25 -19 c14 -10 90 -64 170 -118 80 -55 326 -225 546 -377
221 -152 407 -277 414 -277 13 0 55 29 580 390 565 390 595 410 601 410 3 0
10 -5 17 -12z m-558 -57 c0 -6 -4 -13 -10 -16 -5 -3 -10 -15 -10 -26 0 -10 -7
-19 -15 -19 -18 0 -20 41 -3 58 14 14 38 16 38 3z m-1230 -20 c14 -27 13 -51
-3 -51 -6 0 -17 16 -23 35 -9 28 -8 35 2 35 7 0 18 -9 24 -19z m1344 13 c13
-5 9 -10 -16 -23 -38 -20 -65 -8 -34 15 22 16 28 17 50 8z m-1444 -19 c17 -21
4 -32 -20 -17 -11 7 -27 12 -35 12 -9 0 -13 5 -10 10 9 15 51 12 65 -5z m1490
-55 c18 -11 13 -16 -27 -23 -24 -5 -33 -3 -33 7 0 26 31 35 60 16z m-1530 -14
c0 -10 -10 -14 -35 -13 -34 2 -42 7 -28 20 13 13 63 7 63 -7z m1166 -247 c3
-6 2 -14 -4 -18 -6 -4 -15 -18 -21 -31 -8 -22 -10 -23 -16 -7 -8 20 9 67 24
67 5 0 13 -5 17 -11z m-824 -24 c9 -19 9 -28 0 -37 -9 -9 -12 -8 -12 4 0 8 -7
21 -15 28 -19 16 -19 30 0 30 9 0 21 -11 27 -25z"/>
<path d="M3273 2990 c-13 -15 -23 -33 -23 -38 0 -6 21 -22 48 -38 26 -15 49
-28 51 -30 2 -2 -4 -13 -14 -24 -17 -19 -18 -19 -45 10 -28 30 -66 38 -104 24
-25 -9 -19 -19 19 -33 19 -7 49 -30 67 -52 38 -47 59 -49 91 -8 l24 31 16 -22
c11 -16 13 -30 6 -53 -13 -47 -12 -50 25 -43 29 6 37 3 46 -15 10 -17 8 -25
-11 -45 l-22 -24 39 0 c29 0 43 -5 52 -21 12 -19 10 -24 -14 -50 l-28 -29 42
0 c54 0 61 -15 25 -53 -81 -87 -93 -130 -47 -166 34 -26 56 -27 79 -1 24 26
23 84 -1 111 -15 17 -16 22 -4 29 8 5 18 6 23 3 14 -9 44 -84 52 -130 6 -38 4
-43 -29 -70 l-36 -28 42 -10 c36 -9 43 -15 43 -35 0 -16 -11 -31 -32 -46 l-32
-21 39 -16 c33 -12 40 -20 40 -42 0 -46 -17 -65 -58 -65 l-37 0 25 -21 c14
-11 52 -41 84 -65 58 -44 60 -45 75 -26 9 11 24 24 34 29 17 9 16 11 -10 28
-15 11 -46 22 -68 25 l-40 6 41 21 c39 21 42 25 46 74 18 185 -85 490 -237
704 -81 114 -228 260 -257 254 -2 0 -13 -13 -25 -29z m302 -639 c-9 -29 -33
-26 -41 5 -5 17 -2 29 7 35 20 12 43 -14 34 -40z"/>
<path d="M710 2943 c-19 -8 -61 -15 -93 -15 l-57 -1 6 -32 6 -32 -51 5 c-47 4
-51 3 -60 -22 -12 -30 -6 -52 22 -83 29 -33 16 -53 -29 -46 l-37 6 16 -24 c9
-13 17 -27 17 -31 0 -3 -25 -12 -55 -18 -72 -15 -76 -40 -7 -40 52 0 77 -17
84 -55 4 -23 -29 -41 -97 -54 -57 -11 -60 -14 -42 -43 22 -35 5 -88 -29 -88
-21 0 -25 -3 -19 -17 5 -10 10 -33 13 -50 4 -32 4 -33 -35 -33 -46 0 -73 -23
-73 -63 0 -32 32 -67 61 -67 15 0 20 -5 17 -22 -2 -18 -11 -24 -43 -28 l-40
-6 92 -47 c51 -26 101 -47 112 -47 23 0 31 35 31 134 -1 81 -17 73 -27 -14 -7
-61 -23 -78 -58 -62 -26 12 -34 32 -12 32 7 0 21 37 35 93 43 171 83 277 111
292 14 7 37 25 51 39 22 25 23 29 12 71 l-12 45 71 105 c40 58 78 105 85 105
8 0 14 -2 14 -5 0 -10 -32 -69 -55 -100 -12 -16 -20 -38 -17 -48 3 -13 16 -3
53 44 54 68 64 92 56 142 -2 18 2 44 10 60 8 16 13 30 11 32 -2 2 -19 -3 -38
-12z m-173 -144 c-14 -23 -21 -24 -38 -3 -11 14 -10 18 6 30 26 19 49 0 32
-27z m-253 -577 c-1 -7 -2 -21 -2 -32 -3 -35 -62 -19 -62 17 0 14 37 34 55 29
6 -1 10 -8 9 -14z"/>
<path d="M244 2519 c-3 -6 0 -15 7 -20 22 -14 29 -11 29 11 0 21 -24 27 -36 9z"/>
<path d="M200 2385 c0 -8 9 -15 20 -15 11 0 20 7 20 15 0 8 -9 15 -20 15 -11
0 -20 -7 -20 -15z"/>
<path d="M288 1914 c-43 -13 -98 -61 -98 -86 0 -18 59 -68 87 -74 27 -5 32
-14 67 -122 48 -145 73 -197 124 -248 56 -58 112 -64 149 -15 20 26 15 31 -27
31 -37 0 -43 4 -72 45 -44 62 -99 217 -158 443 -6 23 -14 42 -18 41 -4 0 -28
-7 -54 -15z m6 -80 c4 -15 5 -28 2 -31 -10 -11 -46 10 -46 26 0 39 35 43 44 5z"/>
<path d="M3593 1898 c2 -7 12 -13 22 -13 10 0 20 6 23 13 2 7 -6 12 -23 12
-17 0 -25 -5 -22 -12z"/>
<path d="M3580 1825 c0 -8 9 -15 20 -15 11 0 20 7 20 15 0 8 -9 15 -20 15 -11
0 -20 -7 -20 -15z"/>
<path d="M3691 1808 c-4 -13 -30 -81 -56 -153 -53 -145 -86 -215 -109 -234 -9
-8 -32 -12 -56 -9 -47 4 -50 -4 -15 -36 55 -51 129 -41 160 22 35 72 101 238
131 325 25 76 27 89 14 97 -27 17 -60 11 -69 -12z"/>
<path d="M860 748 l-104 -121 38 -33 39 -34 39 45 39 45 46 -35 c62 -47 103
-47 149 -1 36 36 43 67 23 108 -10 21 -140 141 -157 145 -4 1 -54 -53 -112
-119z m175 -22 c30 -45 -14 -76 -60 -42 -18 13 -18 14 1 39 24 33 39 34 59 3z"/>
<path d="M2928 777 c-54 -40 -98 -75 -98 -79 0 -7 161 -232 180 -251 8 -9 220
138 220 153 0 4 -8 18 -19 31 l-18 23 -67 -48 c-65 -46 -68 -47 -87 -30 -10 9
-19 21 -19 26 0 4 27 27 60 51 33 23 59 44 60 47 0 3 -9 16 -19 29 l-18 23
-63 -46 c-62 -46 -63 -46 -78 -25 -16 23 -18 21 61 78 55 40 58 44 44 64 -8
12 -21 23 -28 24 -8 1 -58 -31 -111 -70z"/>
<path d="M1279 567 c-40 -27 -76 -87 -84 -142 -9 -61 26 -123 88 -153 64 -31
135 -32 178 -1 37 26 79 110 79 157 0 117 -164 204 -261 139z m141 -77 c54
-54 -15 -187 -84 -160 -39 14 -52 51 -37 101 22 74 78 102 121 59z"/>
<path d="M2585 576 c-62 -20 -84 -35 -105 -69 -42 -67 -12 -190 57 -237 92
-63 253 8 253 111 0 28 -2 29 -44 29 -42 0 -44 -1 -50 -34 -5 -25 -14 -37 -36
-46 -38 -16 -55 -9 -80 32 -28 46 -27 112 2 132 29 20 47 20 69 0 17 -15 21
-15 54 6 40 25 40 35 4 62 -33 25 -77 30 -124 14z"/>
<path d="M2188 473 c-33 -5 -34 -15 -17 -175 16 -156 12 -148 64 -148 24 0 46
3 48 8 2 4 -3 77 -12 162 -18 170 -14 164 -83 153z"/>
<path d="M1730 461 c0 -4 -7 -75 -15 -156 -9 -81 -15 -149 -13 -150 5 -5 182
-25 221 -25 38 0 38 0 35 38 -3 33 -6 37 -33 40 -16 1 -50 5 -74 8 l-44 6 7
71 c4 40 9 96 13 125 l6 52 -52 0 c-28 0 -51 -4 -51 -9z"/>
</g>
</svg>
