<?xml version="1.0"?>
<svg xmlns="http://www.w3.org/2000/svg" id="Layer_1" data-name="Layer 1" viewBox="0 0 512 512" width="512px" height="512px" class=""><g><title>Transfer files</title><rect x="352" y="285" width="20" height="158" style="fill:#d4e1f4" data-original="#D4E1F4"/><path d="M372,263.688A13.459,13.459,0,0,1,385.653,250h-20A13.459,13.459,0,0,0,352,263.688V273h20Z" style="fill:#d4e1f4" data-original="#D4E1F4"/><path d="M372,474.521V455H352v19.521c0,7.72,5.934,14.479,13.653,14.479h20C377.934,489,372,482.241,372,474.521Z" style="fill:#d4e1f4" data-original="#D4E1F4"/><path d="M135.8,50h-20A17.643,17.643,0,0,0,98,67.758V80h20V67.758A17.643,17.643,0,0,1,135.8,50Z" style="fill:#d4e1f4" data-original="#D4E1F4"/><path d="M48,287.1V110.289A18.2,18.2,0,0,1,65.924,92h-20A18.2,18.2,0,0,0,28,110.289V287.1A17.871,17.871,0,0,0,45.924,305h20A17.871,17.871,0,0,1,48,287.1Z" style="fill:#d4e1f4" data-original="#D4E1F4"/><path d="M198,287.1V275h39.924C254.466,275,268,261.11,268,244.568V104.391a6.035,6.035,0,0,0-1.8-4.247L205.547,39.637c-.014-.014-.04-.024-.055-.038a5.99,5.99,0,0,0-4.323-1.841c-.192,0-.382.132-.569.15-.19-.019-.384.092-.576.092H115.8A29.655,29.655,0,0,0,86,67.758V80H45.924C29.382,80,16,93.747,16,110.289V287.1A29.884,29.884,0,0,0,45.924,317H168.05A29.906,29.906,0,0,0,198,287.1ZM137,100.753,177.67,141H155.29A18.229,18.229,0,0,1,137,123.049Zm70-42.531L247.544,99h-22.38C215.239,99,207,90.442,207,80.517ZM98,67.758A17.643,17.643,0,0,1,115.8,50H195V80.517C195,97.059,208.622,111,225.164,111H256V244.568c0,9.925-8.151,18.432-18.076,18.432H198V146.922a5.977,5.977,0,0,0-1.737-4.247l-60.62-60.506-.042-.041a5.973,5.973,0,0,0-4.314-1.839c-.191,0-.377-.133-.563-.116-.191-.018-.38-.173-.573-.173H98ZM28,287.1V110.289A18.2,18.2,0,0,1,45.924,92H125v31.049C125,139.591,138.748,153,155.29,153H186V287.1A17.893,17.893,0,0,1,168.05,305H45.924A17.871,17.871,0,0,1,28,287.1Z" style="fill:#151C26" data-original="#0635C9" class="active-path" data-old_color="#0635C9"/><path d="M135.429,208h-12a6,6,0,1,0,0,12h12a6,6,0,0,0,0-12Z" style="fill:#151C26" data-original="#0635C9" class="active-path" data-old_color="#0635C9"/><path d="M156.787,178h-99.6a6,6,0,0,0,0,12h99.6a6,6,0,1,0,0-12Z" style="fill:#151C26" data-original="#0635C9" class="active-path" data-old_color="#0635C9"/><path d="M99.232,208H57.187a6,6,0,0,0,0,12H99.232a6,6,0,0,0,0-12Z" style="fill:#151C26" data-original="#0635C9" class="active-path" data-old_color="#0635C9"/><path d="M496,264a26,26,0,0,0-26-26H370a26,26,0,0,0-26,26V475a26,26,0,0,0,26,26H470a26,26,0,0,0,26-26ZM370.076,250h100A13.687,13.687,0,0,1,484,263.688V273H472.41a6,6,0,0,0,0,12H484V443H356V285h70.526a6,6,0,1,0,0-12H356v-9.312A13.817,13.817,0,0,1,370.076,250Zm100,239h-100c-7.72,0-14.076-6.759-14.076-14.479V455H484v19.521C484,482.241,477.8,489,470.076,489Z" style="fill:#151C26" data-original="#0635C9" class="active-path" data-old_color="#0635C9"/><path d="M444.815,285h9.018a6,6,0,1,0,0-12h-9.018a6,6,0,0,0,0,12Z" style="fill:#151C26" data-original="#0635C9" class="active-path" data-old_color="#0635C9"/><path d="M420.076,460.987a10.667,10.667,0,1,0,10.667,10.667A10.679,10.679,0,0,0,420.076,460.987Zm0,12a1.333,1.333,0,1,1,1.334-1.333A1.335,1.335,0,0,1,420.076,472.987Z" style="fill:#151C26" data-original="#0635C9" class="active-path" data-old_color="#0635C9"/><path d="M269.085,462.831l5.8,27.4a6,6,0,0,0,10.9,2.03L311.43,452.85a6,6,0,0,0-1.757-8.3L270.257,418.9a6,6,0,0,0-9.143,6.272l5.472,25.851a122.492,122.492,0,0,1-134.2-117.849,6,6,0,1,0-11.992.409A134.343,134.343,0,0,0,269.085,462.831Zm29.014-11.5L283.626,473.58l-3.862-18.245c0-.014,0-.028,0-.042a5.935,5.935,0,0,0-.156-.71l-3.75-17.721Z" style="fill:#ec1661" data-original="#1AE5BE" class="" data-old_color="#1AE5BE"/><path d="M256.366,61.924l39.415,25.645a6,6,0,0,0,9.143-6.272l-5.472-25.852a122.492,122.492,0,0,1,134.2,117.85,6,6,0,0,0,5.992,5.8c.07,0,.139,0,.208,0a6,6,0,0,0,5.792-6.2A134.491,134.491,0,0,0,296.953,43.637l-5.8-27.4a6,6,0,0,0-10.9-2.03L254.609,53.623A6,6,0,0,0,256.366,61.924Zm26.047-29.031,3.862,18.249c0,.012,0,.025,0,.038a5.987,5.987,0,0,0,.154.7l3.752,17.726L267.94,55.138Z" style="fill:#ec1661" data-original="#1AE5BE" class="" data-old_color="#1AE5BE"/></g> </svg>
