<?xml version="1.0"?>
<svg xmlns="http://www.w3.org/2000/svg" id="Guide" height="512px" viewBox="0 0 512 512" width="512px" class=""><g><g fill="#d4e1f4"><path d="m48.356 68.816-20 6 11.691 52.558 19.033-4.35z" data-original="#D4E1F4" class=""/><path d="m40.388 33.996-20 5 5.362 24.107 19.033-4.349z" data-original="#D4E1F4" class=""/><path d="m86.818 260.241a48.382 48.382 0 0 1 -21.466-30.648l-19.29-91.712-20 5 19.29 86.712a48.382 48.382 0 0 0 21.466 30.648 47.17 47.17 0 0 0 35.332 6.305 47.666 47.666 0 0 1 -15.332-6.305z" data-original="#D4E1F4" class=""/><path d="m470.316 412.262a12.057 12.057 0 0 1 6.6-13.45 11.633 11.633 0 0 0 -4.983-1.126 11.847 11.847 0 0 0 -2.538.276 12.019 12.019 0 0 0 -9.08 14.3l5.773 26.716 9.547-2.1z" data-original="#D4E1F4" class=""/></g><path d="m141.122 432.327a89 89 0 0 0 39.392 56.438 83.911 83.911 0 0 0 64.025 11.113c46.343-10.593 75.392-58.11 64.756-105.922l-13.627-61.262c-9.207-41.391 15.787-82.49 55.717-91.618a72.113 72.113 0 0 1 54.94 9.559 77.062 77.062 0 0 1 34.082 48.87l19.435 89.485a24.105 24.105 0 0 0 -11.256 25.81l6.576 30.43a8.214 8.214 0 0 0 8 6.484 8.282 8.282 0 0 0 1.772-.193l8.041-1.765 5.634 26.073a6 6 0 1 0 11.729-2.534l-5.638-26.115 10.85-2.38a8.234 8.234 0 0 0 6.261-9.771l-6.575-30.43a23.845 23.845 0 0 0 -10.478-15.135 23.608 23.608 0 0 0 -13.358-3.774l-19.276-88.761a89.006 89.006 0 0 0 -39.392-56.438 84.03 84.03 0 0 0 -64.025-11.114c-46.343 10.594-75.392 58.111-64.757 105.923l13.628 61.261c9.207 41.391-15.787 82.491-55.717 91.619a72.112 72.112 0 0 1 -54.941-9.559 77.082 77.082 0 0 1 -34.088-48.9l-35.68-160.4a6 6 0 0 0 -11.714 2.605zm342.387-25.194 5.781 26.754-12.985 2.85-10.212 2.241-5.773-26.716a12.019 12.019 0 0 1 9.08-14.3 11.847 11.847 0 0 1 2.538-.276 11.7 11.7 0 0 1 6.34 1.874 11.923 11.923 0 0 1 5.231 7.573z" fill="#0635c9" data-original="#0635C9" class="" style="fill:#ec1661" data-old_color="#0635c9"/><path d="m60.407 270.385a59.169 59.169 0 0 0 31.705 9.245 59.843 59.843 0 0 0 13.347-1.515l16.267-3.719c32.289-7.38 52.645-39.964 45.378-72.635l-20.104-90.372a9.155 9.155 0 0 0 -4.245-5.743 6.185 6.185 0 0 0 -4.51-.719l-14.772 3.373-20.006-89.932a11.194 11.194 0 0 0 -4.678-7.1 7.8 7.8 0 0 0 -5.944-1.075l-78.445 17.86c-4.739 1.083-7.354 6.21-6.083 11.926l20.036 90.07-7.533 1.722c-5.952 1.334-8.17 6.064-7.284 10.045l20.102 90.384a60.3 60.3 0 0 0 26.769 38.185zm39.178-211.843c.168-.038.332-.087.494-.139l11.7 52.575-71.727 16.4-11.696-52.562zm-73.835 4.558-5.362-24.1 71.74-16.337 5.357 24.084c-.19.025-.381.057-.573.1zm.312 79.778 110.055-25.158 19.273 86.644c5.839 26.249-10.462 52.416-36.338 58.331l-16.268 3.719a47.186 47.186 0 0 1 -35.966-6.176 48.382 48.382 0 0 1 -21.466-30.648z" fill="#1ae5be" data-original="#1AE5BE" class="active-path" style="fill:#151C26" data-old_color="#1ae5be"/><path d="m76.99 229.384a5.993 5.993 0 0 0 7.225 4.451l40.931-9.724a6 6 0 1 0 -2.773-11.674l-40.932 9.723a6 6 0 0 0 -4.451 7.224z" fill="#1ae5be" data-original="#1AE5BE" class="active-path" style="fill:#151C26" data-old_color="#1ae5be"/><path d="m81.437 207.629a6.014 6.014 0 0 0 1.38-.161l28.87-6.8a6 6 0 0 0 -2.751-11.681l-28.871 6.8a6 6 0 0 0 1.372 11.841z" fill="#1ae5be" data-original="#1AE5BE" class="active-path" style="fill:#151C26" data-old_color="#1ae5be"/></g> </svg>
